<svg width="18" height="10" viewBox="0 0 18 10" fill="none" xmlns="http://www.w3.org/2000/svg">
    <path
        d="M1.26844 9.45985C0.946029 9.45985 0.623615 9.35798 0.369078 9.1397C-0.123026 8.71768 -0.123026 8.01916 0.369078 7.59714L5.79914 2.94035C6.07065 2.70751 6.427 2.59109 6.81729 2.6202C7.19061 2.6493 7.53 2.82393 7.75059 3.10043L9.60023 5.48703L15.6243 0.32091C16.1164 -0.101111 16.9309 -0.101111 17.423 0.32091C17.9151 0.742931 17.9151 1.44145 17.423 1.86347L10.296 7.9755C10.0245 8.20834 9.6681 8.32476 9.27781 8.29565C8.90449 8.26655 8.56511 8.09192 8.34451 7.81542L6.49488 5.42882L2.1678 9.1397C1.91327 9.35798 1.59086 9.45985 1.26844 9.45985Z"
        fill="white" />
    <path
        d="M16.5376 5.09336C15.8419 5.09336 15.2649 4.59857 15.2649 4.00192V2.18287H13.1438C12.448 2.18287 11.8711 1.68808 11.8711 1.09143C11.8711 0.494783 12.448 0 13.1438 0H16.5376C17.2333 0 17.8103 0.494783 17.8103 1.09143V4.00192C17.8103 4.59857 17.2333 5.09336 16.5376 5.09336Z"
        fill="white" />
</svg>