<svg width="31" height="30" viewBox="0 0 31 30" fill="none" xmlns="http://www.w3.org/2000/svg">
<path d="M15.5 0.540283C7.47916 0.540283 0.916656 7.0882 0.916656 15.1528C0.916656 22.4445 6.25415 28.4965 13.225 29.5903V19.382H9.52082V15.1528H13.225V11.9299C13.225 8.26945 15.3979 6.25695 18.7375 6.25695C20.3271 6.25695 21.9896 6.53403 21.9896 6.53403V10.1361H20.1521C18.3437 10.1361 17.775 11.259 17.775 12.4111V15.1528H21.8292L21.1729 19.382H17.775V29.5903C21.2115 29.0476 24.3407 27.2942 26.5978 24.6466C28.8549 21.9991 30.0911 18.6318 30.0833 15.1528C30.0833 7.0882 23.5208 0.540283 15.5 0.540283Z" fill="white"/>
</svg>
