<svg width="27" height="28" viewBox="0 0 27 28" fill="none" xmlns="http://www.w3.org/2000/svg">
<path d="M23.7083 0.940186C24.4819 0.940186 25.2237 1.24748 25.7707 1.79446C26.3177 2.34144 26.625 3.0833 26.625 3.85685V24.2735C26.625 25.0471 26.3177 25.7889 25.7707 26.3359C25.2237 26.8829 24.4819 27.1902 23.7083 27.1902H3.29167C2.51812 27.1902 1.77625 26.8829 1.22927 26.3359C0.682291 25.7889 0.375 25.0471 0.375 24.2735V3.85685C0.375 3.0833 0.682291 2.34144 1.22927 1.79446C1.77625 1.24748 2.51812 0.940186 3.29167 0.940186H23.7083ZM22.9792 23.5444V15.8152C22.9792 14.5543 22.4783 13.3451 21.5867 12.4535C20.6951 11.5619 19.4859 11.061 18.225 11.061C16.9854 11.061 15.5417 11.8194 14.8417 12.9569V11.3381H10.7729V23.5444H14.8417V16.3548C14.8417 15.2319 15.7458 14.3131 16.8688 14.3131C17.4102 14.3131 17.9295 14.5282 18.3124 14.9111C18.6953 15.294 18.9104 15.8133 18.9104 16.3548V23.5444H22.9792ZM6.03333 9.04852C6.68311 9.04852 7.30628 8.7904 7.76575 8.33093C8.22521 7.87147 8.48333 7.2483 8.48333 6.59852C8.48333 5.24227 7.38958 4.13394 6.03333 4.13394C5.37969 4.13394 4.75281 4.3936 4.29061 4.8558C3.82841 5.31799 3.56875 5.94487 3.56875 6.59852C3.56875 7.95477 4.67708 9.04852 6.03333 9.04852ZM8.06042 23.5444V11.3381H4.02083V23.5444H8.06042Z" fill="white"/>
</svg>
