<svg width="31" height="30" viewBox="0 0 31 30" fill="none" xmlns="http://www.w3.org/2000/svg">
<path d="M9.37502 0.481934H21.625C26.2917 0.481934 30.0834 4.2736 30.0834 8.94027V21.1903C30.0834 23.4336 29.1922 25.585 27.606 27.1712C26.0197 28.7575 23.8683 29.6486 21.625 29.6486H9.37502C4.70835 29.6486 0.916687 25.8569 0.916687 21.1903V8.94027C0.916687 6.69698 1.80783 4.54557 3.39408 2.95932C4.98032 1.37308 7.13173 0.481934 9.37502 0.481934ZM9.08336 3.3986C7.69097 3.3986 6.35561 3.95172 5.37104 4.93629C4.38648 5.92086 3.83335 7.25622 3.83335 8.6486V21.4819C3.83335 24.384 6.18127 26.7319 9.08336 26.7319H21.9167C23.3091 26.7319 24.6444 26.1788 25.629 25.1943C26.6136 24.2097 27.1667 22.8743 27.1667 21.4819V8.6486C27.1667 5.74652 24.8188 3.3986 21.9167 3.3986H9.08336ZM23.1563 5.5861C23.6397 5.5861 24.1034 5.77816 24.4453 6.12002C24.7871 6.46188 24.9792 6.92555 24.9792 7.40902C24.9792 7.89249 24.7871 8.35615 24.4453 8.69802C24.1034 9.03988 23.6397 9.23194 23.1563 9.23194C22.6728 9.23194 22.2091 9.03988 21.8673 8.69802C21.5254 8.35615 21.3334 7.89249 21.3334 7.40902C21.3334 6.92555 21.5254 6.46188 21.8673 6.12002C22.2091 5.77816 22.6728 5.5861 23.1563 5.5861ZM15.5 7.7736C17.4339 7.7736 19.2886 8.54183 20.656 9.90928C22.0235 11.2767 22.7917 13.1314 22.7917 15.0653C22.7917 16.9991 22.0235 18.8538 20.656 20.2213C19.2886 21.5887 17.4339 22.3569 15.5 22.3569C13.5662 22.3569 11.7115 21.5887 10.344 20.2213C8.97658 18.8538 8.20836 16.9991 8.20836 15.0653C8.20836 13.1314 8.97658 11.2767 10.344 9.90928C11.7115 8.54183 13.5662 7.7736 15.5 7.7736ZM15.5 10.6903C14.3397 10.6903 13.2269 11.1512 12.4064 11.9717C11.586 12.7921 11.125 13.9049 11.125 15.0653C11.125 16.2256 11.586 17.3384 12.4064 18.1589C13.2269 18.9793 14.3397 19.4403 15.5 19.4403C16.6603 19.4403 17.7731 18.9793 18.5936 18.1589C19.4141 17.3384 19.875 16.2256 19.875 15.0653C19.875 13.9049 19.4141 12.7921 18.5936 11.9717C17.7731 11.1512 16.6603 10.6903 15.5 10.6903Z" fill="white"/>
</svg>
