<svg width="31" height="22" viewBox="0 0 31 22" fill="none" xmlns="http://www.w3.org/2000/svg">
<path d="M12.5834 15.4403L20.1521 11.0653L12.5834 6.69027V15.4403ZM29.4417 4.02152C29.6313 4.70693 29.7625 5.62568 29.85 6.79235C29.9521 7.95902 29.9959 8.96527 29.9959 9.84027L30.0834 11.0653C30.0834 14.259 29.85 16.6069 29.4417 18.109C29.0771 19.4215 28.2313 20.2674 26.9188 20.6319C26.2334 20.8215 24.9792 20.9528 23.0542 21.0403C21.1584 21.1424 19.4229 21.1861 17.8188 21.1861L15.5 21.2736C9.38961 21.2736 5.58335 21.0403 4.08127 20.6319C2.76877 20.2674 1.92294 19.4215 1.55835 18.109C1.36877 17.4236 1.23752 16.5049 1.15002 15.3382C1.04794 14.1715 1.00419 13.1653 1.00419 12.2903L0.916687 11.0653C0.916687 7.87152 1.15002 5.5236 1.55835 4.02152C1.92294 2.70902 2.76877 1.86318 4.08127 1.4986C4.76669 1.30902 6.02086 1.17777 7.94586 1.09027C9.84169 0.988183 11.5771 0.944434 13.1813 0.944434L15.5 0.856934C21.6104 0.856934 25.4167 1.09027 26.9188 1.4986C28.2313 1.86318 29.0771 2.70902 29.4417 4.02152Z" fill="white"/>
</svg>
