<svg width="40" height="40" viewBox="0 0 60 60" fill="none" xmlns="http://www.w3.org/2000/svg">
    <path
        d="M6.07715 14.3362L24.3753 35.625V52.5L35.6253 45V35.625L53.9234 14.3362C54.9659 13.1175 54.0903 11.25 52.474 11.25H7.52653C5.91028 11.25 5.03465 13.1175 6.07715 14.3362Z"
        fill="white" />
    <path d="M31.875 37.5V47.4994L35.625 45V35.625H33.75C32.715 35.625 31.875 36.465 31.875 37.5Z" fill="#FBF4A5" />
    <path
        d="M52.474 11.25H7.52653C5.91028 11.25 5.03465 13.1175 6.07715 14.3363L6.64903 15H48.724C49.8172 15 50.5559 16.71 50.6047 18.1969L53.9216 14.3363C54.9659 13.1175 54.0903 11.25 52.474 11.25Z"
        fill="#FBF4A5" />
    <path
        d="M28.1253 50.0006V35.625L9.82715 14.3362C8.78465 13.1175 9.66027 11.25 11.2765 11.25H7.52653C5.91028 11.25 5.03465 13.1175 6.07715 14.3362L24.3753 35.625V52.5L28.1253 50.0006Z"
        fill="#BBB24F" />
    <path
        d="M6.07715 14.3362L24.3753 35.625V52.5L35.6253 45V35.625L53.9234 14.3362C54.9659 13.1175 54.0903 11.25 52.474 11.25H7.52653C5.91028 11.25 5.03465 13.1175 6.07715 14.3362Z"
        stroke="#200F60" stroke-width="5" stroke-miterlimit="10" stroke-linecap="round" stroke-linejoin="round" />
    <path d="M41.25 16.875H44.3231L39.375 22.6331" stroke="white" stroke-width="4" stroke-miterlimit="10"
        stroke-linecap="round" stroke-linejoin="round" />
</svg>